<svg width="512" height="512" viewBox="0 0 512 512" fill="none" xmlns="http://www.w3.org/2000/svg">
  <defs>
    <linearGradient id="logoBg" x1="88" y1="76" x2="418" y2="432" gradientUnits="userSpaceOnUse">
      <stop stop-color="#FBBF24" />
      <stop offset="1" stop-color="#F59E0B" />
    </linearGradient>
    <filter id="logoShadow" x="58" y="58" width="396" height="396" filterUnits="userSpaceOnUse" color-interpolation-filters="sRGB">
      <feFlood flood-opacity="0" result="BackgroundImageFix"/>
      <feColorMatrix in="SourceAlpha" type="matrix" values="0 0 0 0 0 0 0 0 0 0 0 0 0 0 0 0 0 0 127 0" result="hardAlpha"/>
      <feOffset dy="16"/>
      <feGaussianBlur stdDeviation="18"/>
      <feColorMatrix type="matrix" values="0 0 0 0 0.56 0 0 0 0 0.34 0 0 0 0 0.05 0 0 0 0.26 0"/>
      <feBlend mode="normal" in2="BackgroundImageFix" result="effect1_dropShadow_0_1"/>
      <feBlend mode="normal" in="SourceGraphic" in2="effect1_dropShadow_0_1" result="shape"/>
    </filter>
  </defs>

  <rect x="60" y="60" width="392" height="392" rx="104" fill="url(#logoBg)"/>

  <g filter="url(#logoShadow)">
    <path d="M254.34 135C287.772 135 323.842 161.942 323.842 214.713C323.842 281.436 281.616 331.871 208.819 365.35C199.323 369.715 189.31 361.766 191.401 351.529C204.826 285.795 203.22 230.537 181.718 189.445C173.996 174.684 164.36 161.419 153.312 149.632C146.489 142.354 150.716 130.376 160.448 128.746C196.323 122.734 226.876 135 254.34 135Z" fill="white"/>
    <path d="M233.467 177.191C242.591 224.305 240.232 274.788 226.385 328.64" stroke="#A16207" stroke-width="19" stroke-linecap="round"/>
    <path d="M238.525 214.422C266.897 210.729 292.52 197.427 313.792 175.449" stroke="#A16207" stroke-width="12" stroke-linecap="round"/>
    <path d="M240.614 255.646C264.753 253.405 286.577 244.349 304.838 230.057" stroke="#A16207" stroke-width="10" stroke-linecap="round"/>
  </g>
</svg>
