<svg width="512" height="512" viewBox="0 0 512 512" fill="none" xmlns="http://www.w3.org/2000/svg">
  <defs>
    <linearGradient id="goldBg" x1="64" y1="48" x2="436" y2="464" gradientUnits="userSpaceOnUse">
      <stop stop-color="#FBBF24" />
      <stop offset="1" stop-color="#F59E0B" />
    </linearGradient>
    <linearGradient id="goldGlow" x1="126" y1="86" x2="332" y2="328" gradientUnits="userSpaceOnUse">
      <stop stop-color="#FFF4BF" stop-opacity="0.8" />
      <stop offset="1" stop-color="#FFF4BF" stop-opacity="0" />
    </linearGradient>
    <filter id="shadow" x="54" y="58" width="404" height="396" filterUnits="userSpaceOnUse" color-interpolation-filters="sRGB">
      <feFlood flood-opacity="0" result="BackgroundImageFix"/>
      <feColorMatrix in="SourceAlpha" type="matrix" values="0 0 0 0 0 0 0 0 0 0 0 0 0 0 0 0 0 0 127 0" result="hardAlpha"/>
      <feOffset dy="18"/>
      <feGaussianBlur stdDeviation="18"/>
      <feColorMatrix type="matrix" values="0 0 0 0 0.53 0 0 0 0 0.31 0 0 0 0 0.03 0 0 0 0.28 0"/>
      <feBlend mode="normal" in2="BackgroundImageFix" result="effect1_dropShadow_1_2"/>
      <feBlend mode="normal" in="SourceGraphic" in2="effect1_dropShadow_1_2" result="shape"/>
    </filter>
  </defs>

  <rect x="52" y="52" width="408" height="408" rx="104" fill="url(#goldBg)"/>
  <rect x="52" y="52" width="408" height="408" rx="104" fill="url(#goldGlow)"/>

  <g filter="url(#shadow)">
    <path d="M255.613 126C284.182 148.059 311.102 184.829 311.102 235.603C311.102 294.032 278.109 339.06 222.346 367.016C214.221 371.087 206.52 364.174 207.729 355.198C214.985 301.298 209.88 251.986 191.474 210.126C183.827 192.736 173.04 176.504 160.021 161.281C153.433 153.577 157.253 141.537 167.152 139.286C205.253 130.622 233.242 125.702 255.613 126Z" fill="white"/>
    <path d="M267.273 163.729C263.711 208.203 252.577 250.846 232.987 291.736C218.478 322.022 201.684 346.413 183.653 365.291" stroke="#D97706" stroke-width="16" stroke-linecap="round"/>
    <path d="M250.7 223.87C277.158 224.489 305.101 216.847 332.529 200.743" stroke="#D97706" stroke-width="11" stroke-linecap="round"/>
    <path d="M235.511 257.037C257.908 258.139 282.2 252.517 305.787 241.307" stroke="#D97706" stroke-width="10" stroke-linecap="round"/>
    <path d="M217.777 292.684C236.175 293.736 256.818 289.868 276.572 282.31" stroke="#D97706" stroke-width="9" stroke-linecap="round"/>
  </g>
</svg>
